G04 PROTEUS GERBER X2 FILE*
%TF.GenerationSoftware,Labcenter,Proteus,8.6-SP2-Build23525*%
%TF.CreationDate,2021-11-17T23:03:13+00:00*%
%TF.FileFunction,Plated,0,2,PTH*%
%TF.FilePolarity,Positive*%
%TF.Part,Single*%
%FSLAX45Y45*%
%MOMM*%
G01*
%TA.AperFunction,ComponentDrill*%
%ADD16C,1.000000*%
%TA.AperFunction,ComponentDrill*%
%ADD17C,1.524000*%
%TA.AperFunction,ComponentDrill*%
%ADD18C,3.000000*%
%TD.AperFunction*%
D16*
X-2674000Y+5016000D03*
X-2674000Y+4762000D03*
X-2674000Y+3492000D03*
X-2674000Y+3238000D03*
X-2674000Y+2984000D03*
X-2674000Y+2730000D03*
X-2674000Y+2476000D03*
X-2674000Y+2222000D03*
X-7500000Y+6184400D03*
X-7500000Y+2222000D03*
X-7500000Y+2476000D03*
X-7500000Y+2730000D03*
X-7500000Y+2984000D03*
X-7500000Y+3238000D03*
X-7500000Y+3492000D03*
X-7500000Y+3746000D03*
X-7500000Y+4000000D03*
X-7500000Y+4406400D03*
X-7500000Y+4660400D03*
X-7500000Y+4914400D03*
X-7500000Y+5168400D03*
X-7500000Y+5422400D03*
X-7500000Y+5676400D03*
X-2674000Y+4508000D03*
X-2674000Y+4254000D03*
X-7500000Y+5930400D03*
X-2674000Y+5778000D03*
X-2674000Y+5524000D03*
X-2674000Y+5270000D03*
X-7500000Y+6692400D03*
X-7500000Y+6438400D03*
X-2674000Y+4000000D03*
D17*
X-1500000Y+4750000D03*
X-1500000Y+5250380D03*
X-1500000Y+4000760D03*
X-1500000Y+3500380D03*
X-1500000Y+3000000D03*
X-2250000Y+1000000D03*
X-2750380Y+1000000D03*
X-3250760Y+1000000D03*
X-4000000Y+1000000D03*
X-4500380Y+1000000D03*
X-8250000Y+7500000D03*
X-8250000Y+8000380D03*
X-8250000Y+8500760D03*
X-8250000Y+6750000D03*
X-8250000Y+6249620D03*
X-8250000Y+5500000D03*
X-8250000Y+4999620D03*
X-8250000Y+4000000D03*
X-8250000Y+3499620D03*
X-8250000Y+2750000D03*
X-8250000Y+2249620D03*
X-8000380Y+1000000D03*
X-7500000Y+1000000D03*
X-1500000Y+8750760D03*
X-1500000Y+8250380D03*
X-1500000Y+7750000D03*
X-2250760Y+10000000D03*
X-1750380Y+10000000D03*
X-1250000Y+10000000D03*
X-4000760Y+10000000D03*
X-3500380Y+10000000D03*
X-3000000Y+10000000D03*
X-8250000Y+9750000D03*
X-8250000Y+10250380D03*
X-8250000Y+10750760D03*
D18*
X-500000Y+6500000D03*
X+118800Y+6491900D03*
X-211200Y+6011900D03*
D17*
X-6250760Y+1000000D03*
X-5750380Y+1000000D03*
X-5250000Y+1000000D03*
M02*
