G04 PROTEUS GERBER X2 FILE*
%TF.GenerationSoftware,Labcenter,Proteus,8.6-SP2-Build23525*%
%TF.CreationDate,2021-11-17T23:03:13+00:00*%
%TF.FileFunction,Copper,L2,Bot*%
%TF.FilePolarity,Positive*%
%TF.Part,Single*%
%FSLAX45Y45*%
%MOMM*%
G01*
%TA.AperFunction,Conductor*%
%ADD10C,1.016000*%
%ADD11C,1.270000*%
%AMDIL002*
4,1,8,
-1.270000,0.457200,-0.965200,0.762000,0.965200,0.762000,1.270000,0.457200,1.270000,-0.457200,
0.965200,-0.762000,-0.965200,-0.762000,-1.270000,-0.457200,-1.270000,0.457200,
0*%
%TA.AperFunction,ComponentPad*%
%ADD12DIL002*%
%TA.AperFunction,ComponentPad*%
%ADD13C,3.048000*%
%TA.AperFunction,ComponentPad*%
%ADD14R,3.810000X3.810000*%
%TD.AperFunction*%
D10*
X-1500000Y+4000760D02*
X-1892686Y+4000760D01*
X-2387334Y+3506112D01*
X-2659888Y+3506112D01*
X-2674000Y+3492000D01*
X-1500000Y+3500380D02*
X-2068509Y+3500380D01*
X-2330889Y+3238000D01*
X-2674000Y+3238000D01*
X-2250000Y+1000000D02*
X-2250000Y+2804333D01*
X-2429667Y+2984000D01*
X-2674000Y+2984000D01*
X-2674000Y+2730000D02*
X-2963334Y+2730000D01*
X-3133112Y+2560222D01*
X-3133112Y+1382732D01*
X-2750380Y+1000000D01*
X-1500000Y+3000000D02*
X-1500000Y+849002D01*
X-2018334Y+330668D01*
X-6580668Y+330668D01*
X-7000000Y+750000D01*
X-7000000Y+2546557D01*
X-7183000Y+2729557D01*
X-7499557Y+2729557D01*
X-7500000Y+2730000D01*
X-2921890Y+3750000D02*
X-3101112Y+3929222D01*
X-3101112Y+4398888D01*
X-3000000Y+4500000D01*
X-2682000Y+4500000D01*
X-2674000Y+4508000D01*
D11*
X-3143445Y+4761777D02*
X-2674223Y+4761777D01*
X-2674000Y+4762000D01*
D10*
X-8910666Y+9500000D02*
X-8250000Y+8839334D01*
X-8250000Y+8500760D01*
X-7500000Y+5168400D02*
X-7152178Y+5168400D01*
X-6401223Y+4417445D01*
X-4834889Y+4417445D01*
X-4679667Y+4572667D01*
X-4679667Y+7324333D01*
X-4383334Y+7620666D01*
X-4383334Y+8072222D01*
X-4425667Y+8114555D01*
X-4811112Y+8500000D01*
X-5000000Y+8500000D01*
X-6876554Y+8500000D01*
X-7882888Y+7493666D01*
X-8243666Y+7493666D01*
X-8250000Y+7500000D01*
X-8910666Y+9000000D02*
X-8547332Y+8636666D01*
X-8546111Y+8636666D01*
X-8546111Y+7046111D01*
X-8500000Y+7000000D01*
X-8250000Y+6750000D01*
X-8910666Y+9000000D02*
X-8910666Y+9500000D01*
X-7500000Y+5422400D02*
X-7123955Y+5422400D01*
X-6330667Y+4629112D01*
X-5004223Y+4629112D01*
X-4891334Y+4742001D01*
X-4891334Y+4770223D01*
X-4891334Y+7451333D01*
X-4637334Y+7705333D01*
X-4637334Y+8015777D01*
X-4651445Y+8029888D01*
X-4933668Y+8312111D01*
X-4947778Y+8312111D01*
X-6768110Y+8312111D01*
X-6810444Y+8269777D01*
X-7925222Y+7154999D01*
X-7925222Y+6393000D01*
X-8068602Y+6249620D01*
X-8250000Y+6249620D01*
X-7500000Y+4406400D02*
X-7900066Y+4406400D01*
X-7911111Y+4417445D01*
X-8250000Y+4756334D01*
X-8250000Y+4999620D01*
X-8910666Y+6750000D02*
X-8910666Y+6432999D01*
X-8546111Y+6068444D01*
X-8546111Y+5687444D01*
X-8358667Y+5500000D01*
X-8250000Y+5500000D01*
X-8910666Y+6750000D02*
X-8910666Y+9000000D01*
X-8910666Y+5750000D02*
X-8505888Y+5345222D01*
X-8505888Y+4361445D01*
X-8250000Y+4105557D01*
X-8250000Y+4000000D01*
X-8910666Y+5750000D02*
X-8910666Y+6432999D01*
X-7500000Y+4000000D02*
X-7749620Y+4000000D01*
X-8250000Y+3499620D01*
X-8910666Y+4250000D02*
X-8539260Y+3878594D01*
X-8539260Y+3052445D01*
X-8250000Y+2763185D01*
X-8250000Y+2750000D01*
X-8910666Y+4250000D02*
X-8910666Y+5750000D01*
X-7500000Y+2476000D02*
X-8023620Y+2476000D01*
X-8250000Y+2249620D01*
X-7500000Y+1000000D02*
X-7500000Y+2222000D01*
X-8910666Y+2750000D02*
X-8562778Y+2402112D01*
X-8562778Y+1486112D01*
X-8076666Y+1000000D01*
X-8000380Y+1000000D01*
X-1111445Y+4662999D02*
X-1111445Y+625779D01*
X-1615223Y+122001D01*
X-8529666Y+122001D01*
X-8910666Y+503001D01*
X-8910666Y+2750000D01*
X-8910666Y+4250000D01*
X-7500000Y+4914400D02*
X-7494621Y+4919779D01*
X-7231444Y+4919779D01*
X-6906888Y+4595223D01*
X-6906888Y+4341223D01*
X-6793999Y+4228334D01*
X-4649112Y+4228334D01*
X-4500000Y+4377446D01*
X-4500000Y+7185556D01*
X-4169334Y+7516222D01*
X-4169334Y+8169334D01*
X-4750000Y+8750000D01*
X-7250000Y+8750000D01*
X-7500000Y+4660400D02*
X-7491268Y+4651668D01*
X-7287888Y+4651668D01*
X-7146777Y+4510557D01*
X-7146777Y+4284779D01*
X-6861998Y+4000000D01*
X-4500000Y+4000000D01*
X-4268112Y+4231888D01*
X-4268112Y+7107000D01*
X-3929445Y+7445667D01*
X-3929445Y+8179445D01*
X-4250000Y+8500000D01*
X-7500000Y+3746000D02*
X-7496000Y+3750000D01*
X-4250000Y+3750000D01*
X-4028223Y+3971777D01*
X-4028223Y+7064667D01*
X-3250000Y+7842890D01*
X-3250000Y+8500000D01*
X-3250000Y+11500000D02*
X-3000000Y+11250000D01*
X-3000000Y+10000000D01*
X-3260486Y+11510486D02*
X-3250000Y+11500000D01*
X-1500864Y+11500864D02*
X-250864Y+11500864D01*
X+0Y+11250000D01*
X+0Y+9250000D01*
X-1500000Y+7750000D01*
X-3260486Y+11510486D02*
X-2037060Y+11510486D01*
X-2027438Y+11500864D01*
X-1500864Y+11500864D01*
X-1250000Y+11250000D01*
X-1250000Y+10000000D01*
X-2500000Y+8250000D02*
X-1999240Y+8750760D01*
X-1500000Y+8750760D01*
X-7500000Y+3492000D02*
X-4008000Y+3492000D01*
X-3750000Y+3750000D01*
X-3750000Y+7000000D01*
X-2500000Y+8250000D01*
X-2625000Y+8125000D01*
X-3250000Y+8500000D02*
X-2250760Y+9499240D01*
X-2250760Y+10000000D01*
D11*
X-1907397Y+8238648D02*
X-1511732Y+8238648D01*
X-1500000Y+8250380D01*
X-1750380Y+9750380D02*
X-1750380Y+10000000D01*
D10*
X-4250000Y+8500000D02*
X-4250000Y+9750760D01*
X-4000760Y+10000000D01*
D11*
X-3369313Y+9506205D02*
X-3500281Y+9637173D01*
X-3500281Y+9999901D01*
X-3500380Y+10000000D01*
D10*
X-7250000Y+8750000D02*
X-8250000Y+9750000D01*
X-8910666Y+10500000D02*
X-8659906Y+10750760D01*
X-8250000Y+10750760D01*
X-8910666Y+9500000D02*
X-8910666Y+10500000D01*
X-8910666Y+11242597D01*
X-8642777Y+11510486D01*
X-3260486Y+11510486D01*
X-1897445Y+4352555D02*
X-1500000Y+4750000D01*
X-1111445Y+4662999D02*
X-1421889Y+4352555D01*
X-1897445Y+4352555D01*
X-2500000Y+3750000D01*
X-2921890Y+3750000D01*
D11*
X-3143445Y+4761777D02*
X-3387112Y+4518110D01*
X-1934402Y+6498755D02*
X-1737145Y+6498755D01*
X-1485900Y+6750000D01*
X-2250000Y+6500000D02*
X-1500000Y+5750000D01*
X-1500000Y+5250380D01*
X-3387112Y+4518110D02*
X-3387112Y+6112888D01*
X-3000000Y+6500000D01*
X-2250000Y+6500000D01*
X-1935647Y+6500000D01*
X-1934402Y+6498755D01*
X-1485900Y+6750000D02*
X-2039688Y+7303788D01*
X-2039688Y+8106357D01*
X-1907397Y+8238648D01*
D10*
X-1111445Y+4662999D02*
X-250000Y+5524444D01*
D11*
X-1485900Y+6750000D02*
X-750000Y+6750000D01*
X-500000Y+6500000D01*
D10*
X-250000Y+5524444D02*
X+24444Y+5524444D01*
X+250000Y+5750000D01*
X+250000Y+6360700D01*
X+118800Y+6491900D01*
X-2921890Y+3750000D02*
X-3434149Y+3237741D01*
X-3434149Y+1580889D01*
X-3434149Y+1565851D01*
X-4000000Y+1000000D01*
D11*
X-4250000Y+1250000D02*
X-5500380Y+1250000D01*
X-5750380Y+1000000D01*
X-3387112Y+4518110D02*
X-3387112Y+3688148D01*
X-3387112Y+3669332D01*
X-3744592Y+3311852D01*
X-3744592Y+1755408D01*
X-3750000Y+1750000D01*
X-4250000Y+1250000D01*
X-4500000Y+1000000D01*
X-4500380Y+1000000D01*
D10*
X-3434149Y+1565851D02*
X-3434149Y+1181778D01*
X-3865927Y+750000D01*
X-5113733Y+750000D01*
X-5250000Y+886267D01*
X-5250000Y+1000000D01*
X-7500000Y+2984000D02*
X-6984000Y+2984000D01*
X-6250760Y+2250760D01*
X-6250760Y+1000000D01*
D11*
X-3369313Y+9506205D02*
X-3652696Y+9506205D01*
X-3742977Y+9596486D01*
X-3742977Y+10097330D01*
X-3905951Y+10260304D01*
X-7500000Y+10260304D01*
X-8240076Y+10260304D01*
X-8250000Y+10250380D01*
D10*
X-7500000Y+3238000D02*
X-7488000Y+3250000D01*
X-6500000Y+3250000D01*
X-6022193Y+2772193D01*
X-6022193Y+942052D01*
X-5557207Y+477066D01*
X-3773694Y+477066D01*
X-3250760Y+1000000D01*
D11*
X-1750380Y+9750380D02*
X-1898988Y+9750380D01*
X-2000000Y+9851392D01*
X-2000000Y+10222784D01*
X-2101548Y+10351548D01*
X-2531906Y+10351548D01*
X-2738281Y+10145173D01*
X-2738281Y+9740361D01*
X-2972437Y+9506205D01*
X-3369313Y+9506205D01*
X-7500000Y+10260304D02*
X-7739696Y+10500000D01*
X-8527543Y+10500000D01*
X-8728070Y+10299473D01*
X-8728070Y+9668187D01*
X-7844269Y+8784386D01*
X-7844269Y+8406111D01*
X-8250000Y+8000380D01*
X-1907397Y+8238648D02*
X-1652222Y+8493823D01*
X-1431256Y+8493823D01*
X-1277164Y+8499074D01*
X-1000000Y+8750000D01*
X-1000000Y+9496000D01*
X-1254000Y+9750129D01*
X-1750380Y+9750380D01*
D12*
X-2674000Y+5016000D03*
X-2674000Y+4762000D03*
X-2674000Y+3492000D03*
X-2674000Y+3238000D03*
X-2674000Y+2984000D03*
X-2674000Y+2730000D03*
X-2674000Y+2476000D03*
X-2674000Y+2222000D03*
X-7500000Y+6184400D03*
X-7500000Y+2222000D03*
X-7500000Y+2476000D03*
X-7500000Y+2730000D03*
X-7500000Y+2984000D03*
X-7500000Y+3238000D03*
X-7500000Y+3492000D03*
X-7500000Y+3746000D03*
X-7500000Y+4000000D03*
X-7500000Y+4406400D03*
X-7500000Y+4660400D03*
X-7500000Y+4914400D03*
X-7500000Y+5168400D03*
X-7500000Y+5422400D03*
X-7500000Y+5676400D03*
X-2674000Y+4508000D03*
X-2674000Y+4254000D03*
X-7500000Y+5930400D03*
X-2674000Y+5778000D03*
X-2674000Y+5524000D03*
X-2674000Y+5270000D03*
X-7500000Y+6692400D03*
X-7500000Y+6438400D03*
X-2674000Y+4000000D03*
D13*
X-1500000Y+4750000D03*
X-1500000Y+5250380D03*
X-1500000Y+4000760D03*
X-1500000Y+3500380D03*
X-1500000Y+3000000D03*
X-2250000Y+1000000D03*
X-2750380Y+1000000D03*
X-3250760Y+1000000D03*
X-4000000Y+1000000D03*
X-4500380Y+1000000D03*
X-8250000Y+7500000D03*
X-8250000Y+8000380D03*
X-8250000Y+8500760D03*
X-8250000Y+6750000D03*
X-8250000Y+6249620D03*
X-8250000Y+5500000D03*
X-8250000Y+4999620D03*
X-8250000Y+4000000D03*
X-8250000Y+3499620D03*
X-8250000Y+2750000D03*
X-8250000Y+2249620D03*
X-8000380Y+1000000D03*
X-7500000Y+1000000D03*
X-1500000Y+8750760D03*
X-1500000Y+8250380D03*
X-1500000Y+7750000D03*
X-2250760Y+10000000D03*
X-1750380Y+10000000D03*
X-1250000Y+10000000D03*
X-4000760Y+10000000D03*
X-3500380Y+10000000D03*
X-3000000Y+10000000D03*
X-8250000Y+9750000D03*
X-8250000Y+10250380D03*
X-8250000Y+10750760D03*
D14*
X-500000Y+6500000D03*
X+118800Y+6491900D03*
X-211200Y+6011900D03*
D13*
X-6250760Y+1000000D03*
X-5750380Y+1000000D03*
X-5250000Y+1000000D03*
M02*
